<svg width="364" height="70" viewBox="0 0 364 70" fill="none" xmlns="http://www.w3.org/2000/svg">
<g clip-path="url(#clip0)">
<path d="M36.0164 38.2173C35.5346 37.2077 34.8923 36.3596 34.0091 35.6327C32.363 34.2596 30.2754 33.5327 28.0271 32.7654C27.6257 32.6038 27.1841 32.4423 26.7826 32.3211C26.4614 32.2 26.1402 32.1192 25.8592 31.9981C21.5233 30.3827 21.3226 29.6961 21.3226 28.3231C21.3226 27.4346 21.8044 26.3442 22.5671 25.4961C23.2496 24.7288 24.4139 23.8404 26.2607 23.7596C28.1877 24.1231 29.633 24.8096 30.7973 25.9808C32.4835 27.8788 32.9251 30.5442 32.9251 31.7961V32.3615C32.9251 32.8865 33.4069 33.3711 33.9689 33.3711C34.4908 33.3711 34.9324 32.9673 35.0127 32.4423C35.0127 32.3615 35.0529 32.0788 35.0127 31.7154V22.8711C35.0127 22.3058 34.531 21.8211 33.9689 21.8211C33.447 21.8211 32.9251 22.3461 32.9251 22.8711V25.4154C32.7243 25.1327 32.5236 24.85 32.2827 24.5673C32.2827 24.5673 32.2827 24.5673 32.2426 24.5269C30.7571 22.9923 28.7899 22.0635 26.4213 21.7C25.8191 21.6192 25.2169 21.5385 24.4942 21.5385H24.3336C17.7896 21.5385 13.2129 25.2135 13.2129 30.4231C13.2129 31.7961 13.4538 33.0885 13.9355 34.1788C14.337 35.1481 14.9794 36.0365 15.7823 36.8038C17.348 38.3385 19.4357 39.1461 20.881 39.6711L22.4066 40.1961C24.6949 40.9231 26.2205 41.4481 27.2242 42.0942C28.1877 42.7 28.5491 43.3461 28.5491 44.3558C28.5491 48.4346 26.9833 49.3635 24.6146 49.4442C21.3226 49.4442 18.6327 47.95 16.6655 45.0019C15.1801 42.7808 14.6582 40.4385 14.618 40.1558C14.618 40.1154 14.618 40.075 14.618 40.0346C14.4173 39.55 13.9757 39.2269 13.4939 39.2269H13.4538C12.972 39.3077 12.4902 39.7115 12.4902 40.2365V50.1711C12.4902 50.7365 13.0121 51.2615 13.5742 51.2615C14.1764 51.2615 14.618 50.7769 14.618 50.1711V45.6481C15.4611 47.0211 16.4246 48.1923 17.5488 49.0808C19.5561 50.7365 21.9649 51.5442 24.6548 51.5442C25.6585 51.5442 29.1513 51.4231 32.2024 49.6865C33.6076 48.9192 34.6514 47.95 35.4142 46.8192C36.2974 45.4865 36.7391 43.9519 36.7391 42.175C36.7391 40.6404 36.4982 39.3481 36.0164 38.2173ZM29.9141 48.5154C30.3958 47.4654 30.6367 46.0519 30.6367 44.3558C30.6367 40.7211 27.5855 39.6711 23.3299 38.2173L23.0088 38.1365L21.5233 37.6519C17.067 36.0769 15.3407 34.0577 15.3407 30.4231C15.3407 27.1519 17.5488 24.7692 21.162 23.9615C19.9977 25.2135 19.2349 26.8692 19.2349 28.3231C19.2349 29.7769 19.6766 30.7865 20.6401 31.6346C21.6036 32.4827 23.1292 33.1692 25.1366 33.9365C25.4979 34.1385 25.8994 34.2596 26.2607 34.3808C26.622 34.5019 26.9432 34.5827 27.3045 34.7442C27.3446 34.7442 27.3446 34.7442 27.3446 34.7846C27.5454 34.825 27.7461 34.9058 27.9469 34.9865C29.9141 35.6731 31.5601 36.2788 32.7645 37.3288C34.0492 38.4192 34.6113 39.9942 34.6113 42.175C34.6113 45.6885 32.2426 47.5461 29.9141 48.5154Z" fill="#41B346"/>
<path d="M67.911 55.641C68.3927 55.641 68.7675 55.2103 68.7675 54.7257V46.5949C70.748 50.741 74.8698 56.018 82.6851 56.018C88.0916 56.018 98.2622 53.5949 98.2622 44.0641C98.2622 35.8795 92.7486 33.9949 86.9675 32.0026C86.0575 31.6257 85.0939 31.3564 84.0769 30.9795C78.2422 28.8257 77.7069 27.8026 77.7069 25.5949C77.7069 23.1718 80.1157 19.1333 84.8263 18.9718C87.5563 19.4564 89.5904 20.4257 91.2498 22.0949C93.7657 24.8949 94.2474 28.7718 94.2474 30.2257V30.9795C94.2474 31.4103 94.6757 31.7872 95.1039 31.7872C95.5322 31.7872 95.9069 31.4103 95.9604 30.9795C95.9604 30.9795 96.0139 30.6026 95.9604 30.118V18.3256C95.9604 17.8949 95.5857 17.4641 95.1039 17.4641C94.6757 17.4641 94.2474 17.8949 94.2474 18.3256V23.3872C93.8192 22.6872 93.1233 21.7718 92.4274 20.9103C90.5539 18.9718 88.0916 17.7333 84.9333 17.3026C84.0769 17.141 83.2739 17.0872 82.471 17.0872H82.2569C73.8527 17.0872 67.9645 21.718 67.9645 28.3949C67.9645 35.8795 73.2639 38.6257 77.8139 40.1872L79.848 40.8872C85.8433 42.7718 88.4127 43.9026 88.4127 46.9718C88.4127 52.1949 86.5392 54.1333 82.6316 54.2949C71.4975 54.2949 68.7675 41.8564 68.7675 41.3718C68.6069 40.941 68.2322 40.6718 67.8039 40.6718C67.4292 40.7257 67.001 41.0487 67.001 41.4795V54.7257C67.001 55.2103 67.4827 55.641 67.911 55.641ZM78.3492 38.518C72.2469 36.3641 69.731 33.5103 69.731 28.3949C69.731 23.3333 73.5316 19.618 79.6874 18.918C77.3322 20.6949 75.9939 23.441 75.9939 25.5949C75.9939 29.0949 77.9745 30.441 83.488 32.5949C84.5051 33.0257 85.4151 33.241 86.4322 33.6718C92.0527 35.718 96.4957 36.9564 96.4957 44.0641C96.4957 49.5026 92.481 52.2487 88.4663 53.541C89.4833 52.1949 90.1257 50.041 90.1257 46.9718C90.1257 42.3949 86.1645 41.1564 80.3298 39.1641L78.3492 38.518ZM147.257 54.7795C147.257 54.2949 146.828 53.8641 146.4 53.8641H143.456L129.003 18.0026C128.95 17.6256 128.629 17.4641 128.2 17.4641H123.811C123.383 17.4641 123.115 17.6256 122.954 18.0026L120.546 24.6257C120.546 24.6257 120.546 24.6795 120.492 24.7333L113.961 41.0487C113.961 41.0487 113.961 41.1026 113.908 41.1564L108.823 53.8641H103.844C103.363 53.8641 102.988 54.2949 102.988 54.7795C102.988 55.2103 103.363 55.641 103.844 55.641H109.465H118.672C119.1 55.641 119.528 55.2103 119.528 54.7795C119.528 54.2949 119.1 53.8641 118.672 53.8641H110.803L115.353 42.2872H127.29H127.344L132.001 53.8641H126.648C126.22 53.8641 125.738 54.2949 125.738 54.7795C125.738 55.2103 126.22 55.641 126.648 55.641H133.286H142.867H142.921H146.4C146.828 55.641 147.257 55.2103 147.257 54.7795ZM121.295 27.3718L126.594 40.5103H116.103L121.295 27.3718ZM122.312 25.0026L124.4 19.241H127.611L141.529 53.8641H133.928L122.312 25.0026ZM149.971 53.8641C149.489 53.8641 149.061 54.2949 149.061 54.7795C149.061 55.2641 149.489 55.641 149.971 55.641H155.109H164.156H183.266C183.694 55.641 184.176 55.2641 184.176 54.7795V43.0949C184.176 42.6641 183.694 42.1795 183.266 42.1795C182.784 42.1795 182.356 42.6641 182.356 43.0949V53.8641H165.066V19.241H169.669C170.151 19.241 170.526 18.8103 170.526 18.3256C170.526 17.8949 170.151 17.4641 169.669 17.4641H164.156H155.109H149.971C149.489 17.4641 149.061 17.8949 149.061 18.3256C149.061 18.8103 149.489 19.241 149.971 19.241H154.2V53.8641H149.971ZM155.912 19.241H163.246V53.8641H155.912V19.241ZM229.224 54.7795C229.224 54.2949 228.795 53.8641 228.367 53.8641H225.423L210.97 18.0026C210.917 17.6256 210.595 17.4641 210.167 17.4641H205.778C205.35 17.4641 205.082 17.6256 204.921 18.0026L202.512 24.6257C202.512 24.6257 202.512 24.6795 202.459 24.7333L195.928 41.0487C195.928 41.0487 195.928 41.1026 195.875 41.1564L190.79 53.8641H185.811C185.33 53.8641 184.955 54.2949 184.955 54.7795C184.955 55.2103 185.33 55.641 185.811 55.641H191.432H200.639C201.067 55.641 201.495 55.2103 201.495 54.7795C201.495 54.2949 201.067 53.8641 200.639 53.8641H192.77L197.32 42.2872H209.257H209.311L213.968 53.8641H208.615C208.187 53.8641 207.705 54.2949 207.705 54.7795C207.705 55.2103 208.187 55.641 208.615 55.641H215.252H224.834H224.888H228.367C228.795 55.641 229.224 55.2103 229.224 54.7795ZM203.262 27.3718L208.561 40.5103H198.07L203.262 27.3718ZM204.279 25.0026L206.367 19.241H209.578L223.496 53.8641H215.895L204.279 25.0026ZM242.215 55.641H266.785C267.267 55.641 267.642 55.2641 267.642 54.7795V42.4487C267.642 42.018 267.267 41.5872 266.785 41.5872C266.303 41.5872 265.875 42.018 265.875 42.4487V53.8641H243.928L269.141 18.8641C269.301 18.5949 269.355 18.218 269.194 17.9487C268.98 17.6795 268.659 17.4641 268.391 17.4641H257.953H257.846H235.845C235.363 17.4641 234.935 17.8949 234.935 18.3256V29.418C234.935 29.9026 235.363 30.2795 235.845 30.2795C236.327 30.2795 236.755 29.9026 236.755 29.418V19.241H256.133L230.921 54.2949C230.706 54.5641 230.706 54.941 230.867 55.2103C231.081 55.4795 231.295 55.641 231.67 55.641H242.215ZM258.328 19.241H266.625L241.733 53.8641H233.383L258.328 19.241ZM315.477 54.7795C315.477 54.2949 315.049 53.8641 314.621 53.8641H311.677L297.224 18.0026C297.17 17.6256 296.849 17.4641 296.421 17.4641H292.031C291.603 17.4641 291.336 17.6256 291.175 18.0026L288.766 24.6257C288.766 24.6257 288.766 24.6795 288.713 24.7333L282.182 41.0487C282.182 41.0487 282.182 41.1026 282.129 41.1564L277.043 53.8641H272.065C271.583 53.8641 271.209 54.2949 271.209 54.7795C271.209 55.2103 271.583 55.641 272.065 55.641H277.686H286.893C287.321 55.641 287.749 55.2103 287.749 54.7795C287.749 54.2949 287.321 53.8641 286.893 53.8641H279.024L283.574 42.2872H295.511H295.564L300.221 53.8641H294.869C294.44 53.8641 293.959 54.2949 293.959 54.7795C293.959 55.2103 294.44 55.641 294.869 55.641H301.506H311.088H311.141H314.621C315.049 55.641 315.477 55.2103 315.477 54.7795ZM289.516 27.3718L294.815 40.5103H284.323L289.516 27.3718ZM290.533 25.0026L292.62 19.241H295.832L309.75 53.8641H302.149L290.533 25.0026ZM320.493 53.8641C320.011 53.8641 319.637 54.1872 319.637 54.7795C319.637 55.2641 320.011 55.641 320.493 55.641H339.978C340.46 55.641 340.888 55.2641 340.888 54.7795C340.888 54.1872 340.46 53.8641 339.978 53.8641H335.535V39.0564L347.9 55.318C348.275 55.6949 348.435 55.641 348.703 55.641H362.835C363.263 55.641 363.745 55.2641 363.745 54.7795C363.745 54.1872 363.263 53.8641 362.835 53.8641H359.944L347.151 37.1718C352.504 35.5026 355.341 32.0026 355.341 27.2641C355.341 17.841 346.83 17.4641 336.605 17.4641H336.552H334.625H325.632H320.493C320.011 17.4641 319.637 17.841 319.637 18.3256C319.637 18.7564 320.011 19.241 320.493 19.241H324.722V53.8641H320.493ZM335.535 19.241C340.62 19.5103 343.564 23.6026 343.564 27.5333C343.564 34.8026 338.479 36.2564 335.535 36.4718V19.241ZM349.024 53.8641L337.141 38.2487H339.014C341.155 38.2487 343.082 38.141 345.277 37.7103L357.696 53.8641H349.024ZM353.574 27.2641C353.574 32.541 349.292 34.9103 345.652 35.7718C344.1 36.1487 342.601 36.418 341.155 36.4718C343.671 34.8026 345.331 32.0026 345.331 27.5333C345.331 24.518 343.778 21.2333 341.102 19.241C349.238 19.6718 353.574 20.9641 353.574 27.2641ZM326.542 19.241H333.768V53.8641H326.542V19.241Z" fill="#17153D"/>
<path d="M1.0957 15.2564V0.89743" stroke="#17153D"/>
<path d="M45.9463 15.2564V0.89743" stroke="#17153D"/>
<path d="M0.892578 1.34616H46.3926" stroke="#17153D"/>
<path d="M47.0801 55.641V70" stroke="#17153D"/>
<path d="M2.23047 55.641V70" stroke="#17153D"/>
<path d="M47.2842 69.5513H1.78418" stroke="#17153D"/>
</g>
<defs>
<clipPath id="clip0">
<rect width="364" height="70" fill="white"/>
</clipPath>
</defs>
</svg>
